#!OML:ASF F:\VICON\USERDATA\INSTALL\rory3\rory3.ASF
:FULLY-SPECIFIED
:DEGREES
66
root -0.00658262 17.1893 -12.6927 0.959486 -69.1733 7.08643
lowerback 28.8183 -5.33977 4.67803
upperback 5.85493 -5.25535 8.70153
thorax -8.30511 -2.86002 8.52184
lowerneck -11.2611 -2.69603 -2.71128
upperneck 22.9346 -1.77181 -8.47392
head 9.01321 -2.12723 -2.66077
rclavicle 2.8625e-014 6.36111e-015
rhumerus -23.1869 -41.6505 -24.9961
rradius 100.965
rwrist -18.0587
rhand 12.8772 3.56266
rfingers 7.12502
rthumb 37.8499 -22.2773
lclavicle 2.8625e-014 6.36111e-015
lhumerus -43.3155 8.20841 78.7188
lradius 53.1505
lwrist 9.46402
lhand -13.2033 48.5967
lfingers 7.12502
lthumb 12.8972 78.1782
rfemur -40.7297 -3.73693 24.8792
rtibia 52.1792
rfoot -15.2053 3.70718
rtoes 36.4933
lfemur -18.0761 14.8559 -40.2885
ltibia 42.1877
lfoot 24.7216 -20.2263
ltoes 55.542
67
root -0.0292638 17.0773 -12.5756 1.93992 -69.0606 5.36312
lowerback 29.2033 -5.49361 5.3341
upperback 6.01611 -5.25921 8.63505
thorax -8.32749 -2.88331 8.11914
lowerneck -10.0337 -2.34883 -2.51094
upperneck 22.0448 -1.4632 -8.36099
head 8.48428 -1.90105 -2.56552
rclavicle -5.40694e-014 3.18055e-014
rhumerus -22.8893 -40.4261 -25.6804
rradius 103.126
rwrist -15.6317
rhand 12.6511 3.8294
rfingers 7.12502
rthumb 37.6363 -22.0679
lclavicle -5.40694e-014 3.18055e-014
lhumerus -43.2162 8.07494 78.5951
lradius 53.7564
lwrist 9.4661
lhand -10.2723 49.2095
lfingers 7.12502
lthumb 15.7215 78.5909
rfemur -40.1401 -4.08862 25.616
rtibia 52.2737
rfoot -15.5388 2.38361
rtoes 26.0794
lfemur -18.5868 15.1351 -39.2333
ltibia 44.5782
lfoot 28.0505 -18.1692
ltoes 57.1511
68
root -0.043124 17.0733 -12.4796 2.65263 -68.9003 4.12822
lowerback 29.4956 -5.3618 5.51706
upperback 6.10881 -5.02176 8.65308
thorax -8.37853 -2.77929 7.97921
lowerneck -10.2064 -2.6503 -2.22366
upperneck 22.4543 -1.93226 -8.24428
head 8.63345 -2.09946 -2.63707
rclavicle 3.18055e-015 -5.40694e-014
rhumerus -22.8694 -39.0251 -26.1576
rradius 105.388
rwrist -13.3603
rhand 11.4793 2.46076
rfingers 7.12502
rthumb 36.528 -23.7243
lclavicle 3.18055e-015 -5.40694e-014
lhumerus -42.9241 7.09018 78.89
lradius 54.3601
lwrist 9.96931
lhand -15.7328 48.3646
lfingers 7.12502
lthumb 10.4579 78.0845
rfemur -39.3993 -3.35261 25.3808
rtibia 52.2698
rfoot -15.6263 2.32136
rtoes 29.2689
lfemur -19.448 15.5148 -38.0912
ltibia 47.2772
lfoot 29.6159 -17.523
ltoes 56.2174
69
root -0.0651788 17.064 -12.3757 3.14404 -68.8828 3.23848
lowerback 29.4669 -5.19635 5.86513
upperback 6.23731 -4.74442 8.37283
thorax -8.27987 -2.65287 7.38143
lowerneck -9.51244 -2.6112 -1.72092
upperneck 22.1723 -2.0959 -7.81683
head 8.394 -2.06558 -2.56548
rclavicle -8.26944e-014 1.11319e-013
rhumerus -23.4454 -38.1573 -26.5167
rradius 106.95
rwrist -9.81348
rhand 11.5075 3.9913
rfingers 7.12502
rthumb 36.5547 -22.187
lclavicle -8.26944e-014 1.11319e-013
lhumerus -42.496 5.51118 78.9609
lradius 54.9259
lwrist 10.3419
lhand -14.0707 49.5868
lfingers 7.12502
lthumb 12.0609 79.2192
rfemur -38.7982 -3.3096 25.5383
rtibia 52.073
rfoot -15.5444 1.24045
rtoes 25.7779
lfemur -20.4366 15.8806 -36.9929
ltibia 49.7803
lfoot 30.0913 -18.2945
ltoes 53.4187
70
root -0.0921059 17.0678 -12.2515 3.42899 -68.9063 2.42167
lowerback 29.2415 -5.15183 6.25232
upperback 6.75206 -4.65802 7.77551
thorax -8.18787 -2.56933 6.93646
lowerneck -9.85953 -2.81213 -1.26289
upperneck 22.8237 -2.51806 -7.33261
head 8.65959 -2.19442 -2.54756
rclavicle -6.36111e-015 3.18055e-014
rhumerus -23.5188 -36.742 -27.5639
rradius 108.682
rwrist -6.82181
rhand 10.8418 4.00324
rfingers 7.12502
rthumb 35.9244 -22.3318
lclavicle -6.36111e-015 3.18055e-014
lhumerus -42.2137 4.42458 78.791
lradius 55.5809
lwrist 10.6086
lhand -12.5567 49.9161
lfingers 7.12502
lthumb 13.5205 79.4572
rfemur -37.8612 -3.39829 25.4958
rtibia 51.7511
rfoot -15.7291 0.79912
rtoes 24.1785
lfemur -21.2773 15.9892 -35.884
ltibia 52.5159
lfoot 29.3637 -20.2629
ltoes 49.2007
